<svg viewBox="0 0 512 512" xmlns="http://www.w3.org/2000/svg">
  <defs>
    <linearGradient id="bg-gradient" x1="0%" y1="0%" x2="100%" y2="100%">
      <stop offset="0%" stop-color="#654ea3" />
      <stop offset="100%" stop-color="#4a266a" />
    </linearGradient>
    <linearGradient id="shine-gradient" x1="0%" y1="0%" x2="100%" y2="100%">
      <stop offset="0%" stop-color="#ffffff" stop-opacity="0.6" />
      <stop offset="100%" stop-color="#ffffff" stop-opacity="0" />
    </linearGradient>
  </defs>
  
  <!-- Background -->
  <circle cx="256" cy="256" r="248" fill="url(#bg-gradient)" stroke="#f39c12" stroke-width="8" />
  
  <!-- Shine effect -->
  <path d="M120,120 Q256,50 392,120 Q430,200 392,392 Q256,462 120,392 Q82,200 120,120" fill="url(#shine-gradient)" />
  
  <!-- Dragon icon -->
  <path d="M382.8,213.8c-2.2-12.8-11.5-23.5-24.3-28c-3.5-1.2-9.6-2.6-17.8-2.6c-12.6,0-23.6,3.4-32.4,10.1
    c-7.4,5.6-12.4,13.2-14.6,20.9c-7.8-9.6-17.2-17.4-28.1-22.9c-13.9-7.1-29.5-10.8-45.5-10.8c-29.9,0-59.5,12.9-78.5,30.8
    c-22.8,21.6-34.5,51.2-31.3,79.1c1.8,15.6,11.8,28.1,26.5,33.2c6.5,2.3,13.7,3.4,20.9,3.4c28.5,0,47.8-15.7,63.6-29.1
    c1.4-1.2,2.8-2.4,4.2-3.5c11.8-9.8,22.9-19.1,38.4-19.1c7.7,0,14.1,2.1,20,6.5c4.2,3.1,7.6,7.5,10.3,13.1
    c3.8,8.1,8.3,13.5,13.5,16.3c4.8,2.6,10.6,3.1,17.1,1.6c7.2-1.7,14.2-2.5,20.9-2.5c6.4,0,12.7,0.8,18.7,2.3
    c16.7,4.2,22.7-12.3,21.1-20.5c-2.2-12.5-8.2-20.3-18.5-24c-2.8-1-5.5-1.6-8.1-1.6c-6.4,0-10.6,4.2-10.6,10.5
    c0,5.2,3.5,9.8,8.1,10.7l-0.1,0.3c0.7,0.1,1.4,0.2,2.1,0.2c5.3,0,9.6-4.7,9.6-10.5c0-2.5-0.8-4.8-2.2-6.7c2.1,0.2,4.1,0.6,6.2,1.3
    c6.9,2.5,10.9,7.5,12.4,15.5c0.9,4.8-1.8,13.2-10.2,11.1c-6.7-1.7-13.8-2.5-21-2.5c-7.4,0-15.1,0.9-22.9,2.8
    c-4.1,0.9-7.5,0.6-10-0.9c-2.9-1.6-5.6-5.1-8.3-10.9c-3.7-7.8-8.5-14-14.3-18.5c-8.3-6.1-17.8-9.1-28.4-9.1
    c-20.5,0-34,11.3-46,21.3c-1.4,1.1-2.7,2.3-4.1,3.5c-14.7,12.5-31.3,26.7-55,26.7c-5.8,0-11.6-0.9-16.6-2.7
    c-9.7-3.4-16.1-11.6-17.3-22.2c-2.7-23.1,7.2-47.7,26.3-65.8c16.7-15.8,42.5-27.1,68.5-27.1c13.6,0,26.8,3.2,38.7,9.3
    c15.5,7.9,27.7,21.1,35.5,36.4c-1.1,3.3-1.7,6.8-1.7,10.3c0,14.3,9.9,26.4,23.6,28.6c5.8,1,11.5-0.2,16.4-3.1
    c0.7-0.4,1.3-0.8,1.9-1.3c1.6,5.3,3.9,9.2,6.9,11.9c4.6,4.1,10.7,6.2,18.6,6.2c0.5,0,1.1,0,1.6,0c4.2-0.1,8.1-2.6,10.1-6.5
    c4.9-9.4,6.3-16.9,7.7-24.1c0.5-2.4,0.9-4.9,1.5-7.3c1.5-6.2,4.7-11.9,9.1-16.1c3.7-3.6,7.8-6.2,12-7.8
    c2.3,5.6,3.7,11.7,4.3,18.2c1.1,14.4-0.6,29.2-4.7,42c-0.7,2.3-0.5,4.5,0.5,6.3c1.3,2.3,3.6,3.5,6.3,3.5c0.4,0,0.8,0,1.2-0.1
    c1.4-0.2,2.6-0.6,3.6-1.4c3.9-2.8,9.3-11.8,12.3-20.8c2.1-6.3,3.5-13.3,4.1-20.8l0.1-1C382.9,219.7,383.3,217.6,382.8,213.8z
    M353.9,240.7c-1.2,0.4-2.4,0.6-3.6,0.6c-5.8,0-10.5-4.7-10.5-10.5c0-5.8,4.7-10.5,10.5-10.5c1.2,0,2.4,0.2,3.6,0.6
    c-0.4,3.3-0.6,6.5-0.6,9.9C353.3,234.1,353.5,237.4,353.9,240.7z" 
    fill="#fff" />
    
  <!-- Sparkles -->
  <circle cx="150" cy="180" r="8" fill="#f39c12" />
  <circle cx="360" cy="320" r="6" fill="#f39c12" />
  <circle cx="200" cy="380" r="7" fill="#f39c12" />
  <circle cx="300" cy="150" r="5" fill="#f39c12" />
</svg>
